<?xml version="1.0" encoding="UTF-8" standalone="no"?>
<svg
   xmlns:dc="http://purl.org/dc/elements/1.1/"
   xmlns:cc="http://creativecommons.org/ns#"
   xmlns:rdf="http://www.w3.org/1999/02/22-rdf-syntax-ns#"
   xmlns:svg="http://www.w3.org/2000/svg"
   xmlns="http://www.w3.org/2000/svg"
   xmlns:sodipodi="http://sodipodi.sourceforge.net/DTD/sodipodi-0.dtd"
   xmlns:inkscape="http://www.inkscape.org/namespaces/inkscape"
   version="1.1"
   id="Layer_1"
   x="0px"
   y="0px"
   width="800px"
   height="800px"
   viewBox="0 0 800 800"
   enable-background="new 0 0 800 800"
   xml:space="preserve"
   inkscape:version="0.91 r13725"
   sodipodi:docname="OSGeo-logo-minimal.svg"><title
     id="title3336">OSGeo-logo-minimal</title><metadata
     id="metadata8"><rdf:RDF><cc:Work
         rdf:about=""><dc:format>image/svg+xml</dc:format><dc:type
           rdf:resource="http://purl.org/dc/dcmitype/StillImage" /><dc:title>OSGeo-logo-minimal</dc:title><dc:date>2016-08-18</dc:date><dc:creator><cc:Agent><dc:title>Nicolas Bozon</dc:title></cc:Agent></dc:creator><dc:rights><cc:Agent><dc:title>CC-BY-NC-ND</dc:title></cc:Agent></dc:rights><dc:publisher><cc:Agent><dc:title>Open Source Geospatial Foundation</dc:title></cc:Agent></dc:publisher><cc:license
           rdf:resource="http://creativecommons.org/licenses/by-nc-nd/3.0/" /></cc:Work><cc:License
         rdf:about="http://creativecommons.org/licenses/by-nc-nd/3.0/"><cc:permits
           rdf:resource="http://creativecommons.org/ns#Reproduction" /><cc:permits
           rdf:resource="http://creativecommons.org/ns#Distribution" /><cc:requires
           rdf:resource="http://creativecommons.org/ns#Notice" /><cc:requires
           rdf:resource="http://creativecommons.org/ns#Attribution" /><cc:prohibits
           rdf:resource="http://creativecommons.org/ns#CommercialUse" /></cc:License></rdf:RDF></metadata><defs
     id="defs6" /><sodipodi:namedview
     pagecolor="#ffffff"
     bordercolor="#666666"
     borderopacity="1"
     objecttolerance="10"
     gridtolerance="10"
     guidetolerance="10"
     inkscape:pageopacity="0"
     inkscape:pageshadow="2"
     inkscape:window-width="640"
     inkscape:window-height="480"
     id="namedview4"
     showgrid="false"
     inkscape:zoom="0.295"
     inkscape:cx="400"
     inkscape:cy="400"
     inkscape:window-x="40"
     inkscape:window-y="23"
     inkscape:window-maximized="0"
     inkscape:current-layer="Layer_1" /><path
     id="path17"
     fill="#4CAF50"
     d="M713.474,298.484l-33.074,4.83l-33.07,4.83c-11.543-21.566-25.84-41.449-42.453-59.166  c-16.613-17.719-35.543-33.271-56.355-46.184c-21.883-13.58-45.449-23.959-70.014-30.943s-50.131-10.572-76.008-10.572  c-14.053,0-28.033,1.061-41.85,3.166c-13.816,2.107-27.477,5.26-40.885,9.441l-41.598-57.449L236.569,58.99l-9.691-11.193  l15.773,84.746l14.197,69.994c-0.053,0.033-0.1,0.064-0.152,0.096c-0.053,0.035-0.102,0.064-0.154,0.098  c-0.416,0.258-0.826,0.516-1.24,0.775s-0.826,0.52-1.236,0.779c-0.205,0.129-0.408,0.26-0.613,0.387  c-0.205,0.131-0.41,0.26-0.615,0.395c-0.391,0.25-0.783,0.506-1.178,0.758c-0.391,0.258-0.781,0.514-1.172,0.768  c-0.221,0.146-0.441,0.289-0.66,0.434c-0.221,0.145-0.439,0.289-0.662,0.432c-0.371,0.25-0.746,0.5-1.119,0.75  c-0.371,0.25-0.744,0.504-1.117,0.758c-0.232,0.156-0.461,0.312-0.693,0.471c-0.23,0.158-0.461,0.314-0.689,0.473  c-0.359,0.244-0.717,0.492-1.074,0.74c-0.357,0.25-0.713,0.496-1.07,0.746c-0.242,0.17-0.482,0.338-0.723,0.508  c-0.244,0.168-0.482,0.34-0.725,0.51c-0.344,0.242-0.686,0.488-1.025,0.736c-0.342,0.244-0.682,0.488-1.025,0.736  c-0.25,0.18-0.496,0.363-0.746,0.543c-0.252,0.182-0.498,0.365-0.746,0.545c-0.33,0.242-0.66,0.484-0.986,0.73  c-0.33,0.244-0.658,0.486-0.986,0.732c-0.258,0.193-0.512,0.381-0.77,0.574c-0.258,0.191-0.514,0.385-0.768,0.578  c-0.318,0.242-0.633,0.482-0.947,0.725c-0.318,0.242-0.633,0.484-0.947,0.727c-0.26,0.203-0.523,0.406-0.783,0.609  c-0.26,0.205-0.525,0.406-0.781,0.611c-0.307,0.24-0.611,0.479-0.914,0.717c-0.301,0.244-0.607,0.482-0.91,0.727  c-0.264,0.211-0.531,0.424-0.797,0.639c-0.268,0.213-0.531,0.428-0.797,0.643c-0.293,0.238-0.588,0.477-0.879,0.717  c-0.293,0.236-0.584,0.477-0.879,0.717c-0.268,0.223-0.541,0.447-0.811,0.67c-0.27,0.225-0.541,0.449-0.809,0.674  c-0.283,0.236-0.566,0.473-0.85,0.711c-0.279,0.236-0.564,0.475-0.844,0.715c-0.273,0.232-0.547,0.465-0.82,0.699  s-0.547,0.471-0.82,0.703c-0.27,0.234-0.545,0.473-0.816,0.707c-0.27,0.238-0.547,0.473-0.816,0.713  c-0.273,0.242-0.551,0.486-0.828,0.73c-0.273,0.244-0.549,0.486-0.822,0.73c-0.264,0.234-0.529,0.471-0.791,0.705  s-0.525,0.471-0.785,0.707c-0.277,0.252-0.557,0.506-0.836,0.758c-0.277,0.254-0.555,0.508-0.832,0.762  c-0.256,0.234-0.508,0.469-0.762,0.699c-0.256,0.236-0.506,0.473-0.758,0.707c-0.279,0.26-0.562,0.523-0.84,0.787  c-0.279,0.26-0.561,0.523-0.838,0.789c-0.248,0.232-0.49,0.465-0.734,0.697c-0.246,0.232-0.488,0.469-0.732,0.701  c-0.283,0.27-0.566,0.543-0.846,0.814c-0.277,0.273-0.561,0.545-0.84,0.82c-0.236,0.23-0.473,0.461-0.707,0.695  c-0.236,0.229-0.471,0.465-0.705,0.693c-0.283,0.281-0.566,0.564-0.848,0.844c-0.279,0.283-0.562,0.564-0.842,0.848  c-0.229,0.229-0.459,0.459-0.684,0.689s-0.457,0.463-0.68,0.691c-0.283,0.293-0.568,0.58-0.85,0.873s-0.562,0.586-0.844,0.879  c-0.219,0.227-0.439,0.457-0.66,0.684c-0.217,0.229-0.438,0.459-0.656,0.688c-0.283,0.301-0.568,0.604-0.85,0.902  c-0.283,0.303-0.564,0.605-0.846,0.908c-0.211,0.225-0.422,0.455-0.635,0.68c-0.211,0.227-0.42,0.455-0.631,0.684  c-0.281,0.309-0.566,0.619-0.85,0.93c-0.283,0.312-0.564,0.625-0.844,0.936c-0.205,0.225-0.408,0.449-0.611,0.678  c-0.203,0.223-0.404,0.449-0.605,0.676c-0.283,0.32-0.57,0.641-0.852,0.963c-0.283,0.322-0.568,0.646-0.848,0.967  c-0.195,0.221-0.387,0.443-0.582,0.666c-0.193,0.223-0.385,0.445-0.578,0.666c-0.285,0.332-0.572,0.666-0.855,1  c-0.283,0.332-0.566,0.666-0.85,1c-0.186,0.217-0.371,0.434-0.557,0.652c-0.184,0.219-0.365,0.438-0.553,0.656  c-0.287,0.346-0.572,0.689-0.859,1.037c-0.289,0.35-0.57,0.693-0.857,1.041c-0.172,0.213-0.348,0.424-0.521,0.637  c-0.174,0.211-0.35,0.426-0.521,0.637c-0.291,0.361-0.578,0.719-0.867,1.078c-0.291,0.361-0.572,0.721-0.863,1.08  c-0.16,0.209-0.328,0.414-0.49,0.621c-0.162,0.205-0.328,0.408-0.49,0.615c-0.291,0.377-0.582,0.75-0.875,1.127  s-0.578,0.752-0.869,1.127c-0.152,0.199-0.305,0.395-0.459,0.592c-0.154,0.199-0.305,0.396-0.457,0.596  c-0.297,0.393-0.592,0.785-0.887,1.178c-0.293,0.395-0.588,0.789-0.883,1.186c-0.141,0.188-0.277,0.371-0.418,0.557  s-0.277,0.371-0.414,0.557c-0.309,0.416-0.611,0.834-0.912,1.25c-0.301,0.418-0.604,0.836-0.904,1.256  c-0.121,0.17-0.244,0.34-0.365,0.508c-0.123,0.17-0.246,0.34-0.367,0.51c-0.314,0.445-0.629,0.893-0.943,1.34  c-0.312,0.447-0.625,0.895-0.936,1.344c-0.104,0.148-0.205,0.293-0.309,0.441c-0.102,0.148-0.205,0.293-0.307,0.439  c-0.336,0.486-0.668,0.973-0.998,1.461c-0.33,0.49-0.66,0.979-0.99,1.471c-0.074,0.109-0.152,0.223-0.227,0.334  c-0.076,0.111-0.152,0.223-0.227,0.334c-0.363,0.551-0.729,1.102-1.092,1.656c-0.365,0.553-0.721,1.105-1.082,1.66  c-0.035,0.053-0.07,0.107-0.104,0.162c-0.039,0.055-0.072,0.107-0.109,0.162c-1.189,1.848-2.355,3.711-3.502,5.588  c-1.148,1.875-2.27,3.768-3.373,5.674c-5.969,10.324-11.26,21.016-15.836,31.996c-4.578,10.98-8.443,22.248-11.562,33.732  c-3.221,11.838-5.646,23.9-7.266,36.096c-1.621,12.197-2.438,24.531-2.438,36.916c0,6.756,0.242,13.484,0.723,20.176  c0.48,6.693,1.203,13.35,2.168,19.963c0,0.006,0,0.012,0.002,0.016c0,0.004,0,0.01,0.002,0.016c0.07,0.496,0.148,1,0.223,1.498  c0.076,0.502,0.152,1.002,0.23,1.504c0.002,0.012,0.004,0.027,0.008,0.037c0,0.012,0.002,0.027,0.004,0.041  c0.078,0.488,0.156,0.982,0.234,1.475c0.082,0.488,0.16,0.98,0.246,1.475c0.002,0.02,0.004,0.033,0.01,0.059  c0.002,0.014,0.004,0.033,0.01,0.051c0.08,0.482,0.162,0.967,0.25,1.453c0.082,0.479,0.168,0.965,0.256,1.445  c0.004,0.027,0.01,0.051,0.014,0.078c0.006,0.025,0.012,0.051,0.016,0.072c0.084,0.48,0.17,0.957,0.26,1.432  c0.088,0.475,0.178,0.951,0.268,1.432c0.006,0.027,0.012,0.055,0.018,0.086s0.01,0.057,0.018,0.086  c0.09,0.473,0.184,0.949,0.275,1.422c0.092,0.471,0.188,0.945,0.281,1.414c0.006,0.035,0.014,0.062,0.018,0.092  c0.008,0.033,0.014,0.061,0.021,0.092c0.096,0.469,0.193,0.943,0.289,1.412c0.098,0.469,0.197,0.943,0.297,1.408  c0.008,0.037,0.016,0.064,0.023,0.098c0.008,0.031,0.014,0.064,0.02,0.094c0.104,0.471,0.205,0.941,0.309,1.408  c0.104,0.475,0.207,0.943,0.314,1.412c0.008,0.027,0.016,0.059,0.02,0.09c0.008,0.027,0.016,0.055,0.021,0.088  c0.107,0.471,0.217,0.943,0.326,1.412c0.107,0.473,0.221,0.949,0.332,1.414c0.006,0.029,0.014,0.051,0.021,0.084  c0.004,0.023,0.012,0.051,0.018,0.076c0.113,0.475,0.23,0.951,0.344,1.43c0.117,0.473,0.234,0.953,0.355,1.426  c0.006,0.02,0.01,0.043,0.016,0.059c0.004,0.023,0.01,0.043,0.016,0.062c0.121,0.48,0.244,0.969,0.365,1.451  c0.123,0.479,0.248,0.967,0.373,1.445c0.002,0.014,0.008,0.029,0.012,0.039c0.002,0.01,0.006,0.025,0.01,0.039  c1.037,3.959,2.162,7.9,3.379,11.822c1.213,3.92,2.518,7.816,3.91,11.688l-27.318,23.326L86.526,579.48l35.383-5.168l35.381-5.164  c0.084,0.156,0.168,0.307,0.252,0.457c0.08,0.152,0.162,0.305,0.244,0.449c0.107,0.201,0.215,0.396,0.322,0.598  c0.107,0.195,0.215,0.391,0.32,0.586c0.26,0.477,0.525,0.965,0.787,1.445c0.262,0.477,0.531,0.957,0.797,1.434  c0.117,0.211,0.234,0.422,0.354,0.625c0.119,0.211,0.238,0.422,0.355,0.637c0.26,0.457,0.525,0.918,0.787,1.387  c0.262,0.457,0.527,0.918,0.793,1.375c0.129,0.227,0.26,0.441,0.385,0.66c0.131,0.219,0.26,0.439,0.385,0.66  c0.262,0.443,0.525,0.887,0.789,1.332c0.264,0.449,0.529,0.889,0.797,1.332c0.137,0.227,0.271,0.455,0.414,0.684  c0.137,0.227,0.275,0.455,0.416,0.68c0.262,0.434,0.527,0.863,0.789,1.289c0.264,0.43,0.529,0.859,0.795,1.285  c0.15,0.234,0.297,0.469,0.445,0.707c0.15,0.234,0.297,0.469,0.447,0.703c0.262,0.414,0.527,0.83,0.793,1.246  c0.264,0.41,0.533,0.82,0.797,1.234c0.158,0.244,0.314,0.484,0.473,0.723c0.158,0.244,0.314,0.484,0.475,0.723  c0.264,0.406,0.527,0.805,0.795,1.207c0.266,0.398,0.533,0.801,0.801,1.195c0.166,0.25,0.332,0.492,0.5,0.742  c0.164,0.244,0.336,0.488,0.5,0.738c0.266,0.385,0.533,0.775,0.799,1.166c0.268,0.385,0.539,0.775,0.807,1.162  c0.174,0.25,0.352,0.498,0.527,0.746c0.172,0.254,0.35,0.5,0.525,0.748c0.266,0.381,0.537,0.762,0.805,1.139  c0.27,0.375,0.539,0.75,0.812,1.127c0.18,0.26,0.365,0.502,0.551,0.756c0.182,0.254,0.363,0.508,0.551,0.762  c0.268,0.363,0.541,0.734,0.811,1.1s0.545,0.732,0.816,1.1c0.191,0.254,0.381,0.508,0.572,0.762  c0.191,0.258,0.385,0.508,0.574,0.762c0.273,0.359,0.547,0.717,0.82,1.078c0.271,0.355,0.547,0.713,0.82,1.07  c0.199,0.254,0.396,0.512,0.596,0.766c0.197,0.258,0.398,0.512,0.598,0.766c0.275,0.352,0.551,0.699,0.826,1.047  c0.273,0.346,0.551,0.691,0.83,1.039c0.205,0.258,0.412,0.518,0.619,0.771c0.205,0.264,0.412,0.514,0.619,0.775  c0.279,0.338,0.557,0.676,0.834,1.012c0.275,0.342,0.555,0.68,0.834,1.016c0.217,0.254,0.428,0.512,0.643,0.771  c0.215,0.264,0.43,0.514,0.645,0.775c0.277,0.332,0.561,0.66,0.838,0.988c0.281,0.336,0.562,0.664,0.842,0.99  c0.223,0.26,0.443,0.518,0.666,0.771c0.221,0.258,0.443,0.518,0.666,0.771c0.281,0.326,0.564,0.65,0.846,0.971  c0.283,0.324,0.57,0.645,0.854,0.963c0.227,0.26,0.455,0.514,0.68,0.771c0.229,0.258,0.457,0.512,0.686,0.766  c0.281,0.318,0.57,0.637,0.854,0.949c0.287,0.316,0.574,0.629,0.861,0.941c0.234,0.258,0.471,0.512,0.701,0.766  c0.234,0.254,0.471,0.508,0.703,0.762c0.287,0.309,0.576,0.621,0.865,0.924c0.291,0.312,0.58,0.615,0.871,0.924  c0.24,0.254,0.479,0.508,0.719,0.762c0.242,0.248,0.48,0.502,0.723,0.756c0.291,0.303,0.584,0.605,0.877,0.904  c0.291,0.301,0.584,0.6,0.879,0.898c0.244,0.254,0.49,0.502,0.738,0.756c0.246,0.248,0.492,0.502,0.738,0.752  c0.295,0.293,0.59,0.59,0.887,0.883c0.295,0.293,0.592,0.586,0.887,0.885c0.254,0.248,0.502,0.498,0.756,0.748  c0.254,0.248,0.504,0.496,0.76,0.742c0.297,0.287,0.594,0.574,0.891,0.863c0.301,0.289,0.602,0.576,0.9,0.863  c0.258,0.246,0.514,0.488,0.77,0.738c0.258,0.244,0.516,0.492,0.773,0.738c0.303,0.281,0.605,0.566,0.906,0.844  c0.303,0.283,0.609,0.562,0.914,0.844c0.26,0.246,0.521,0.488,0.783,0.729c0.26,0.24,0.523,0.482,0.787,0.723  c0.303,0.279,0.609,0.557,0.918,0.834c0.307,0.273,0.613,0.547,0.924,0.826c0.264,0.24,0.533,0.479,0.797,0.717  c0.266,0.234,0.533,0.475,0.801,0.715c0.311,0.268,0.619,0.541,0.932,0.814c0.312,0.268,0.625,0.541,0.938,0.811  c0.271,0.234,0.543,0.469,0.811,0.703c0.268,0.23,0.541,0.465,0.812,0.699c0.314,0.262,0.633,0.535,0.949,0.795  c0.318,0.268,0.639,0.537,0.957,0.801c0.271,0.229,0.543,0.463,0.816,0.689c0.273,0.229,0.547,0.457,0.822,0.684  c0.322,0.262,0.646,0.527,0.971,0.789c0.324,0.26,0.648,0.527,0.971,0.781c0.277,0.23,0.553,0.449,0.826,0.676  c0.275,0.223,0.553,0.449,0.828,0.668c0.33,0.264,0.66,0.523,0.988,0.781c0.332,0.254,0.664,0.518,0.994,0.777  c0.275,0.215,0.553,0.434,0.83,0.648c0.273,0.219,0.553,0.434,0.83,0.648c0.338,0.26,0.678,0.52,1.016,0.777  c0.342,0.264,0.68,0.512,1.018,0.771c0.279,0.209,0.555,0.42,0.828,0.631c0.275,0.209,0.553,0.414,0.83,0.625  c0.352,0.258,0.699,0.516,1.053,0.77c0.354,0.26,0.703,0.514,1.055,0.773c0.273,0.199,0.545,0.395,0.818,0.6  c0.27,0.195,0.545,0.396,0.818,0.592c0.363,0.258,0.73,0.521,1.096,0.775c0.369,0.264,0.738,0.518,1.104,0.781  c0.264,0.186,0.529,0.371,0.791,0.561c0.264,0.191,0.531,0.377,0.795,0.559c0.395,0.277,0.789,0.547,1.186,0.814  c0.398,0.273,0.797,0.541,1.193,0.811c0.244,0.16,0.484,0.332,0.727,0.498c0.246,0.166,0.486,0.326,0.732,0.494  c0.455,0.301,0.914,0.605,1.373,0.902c0.463,0.303,0.922,0.602,1.383,0.902c0.188,0.123,0.375,0.25,0.564,0.371  c0.189,0.123,0.375,0.25,0.566,0.371c0.654,0.422,1.307,0.84,1.963,1.256s1.312,0.826,1.975,1.24  c0.674,0.414,1.35,0.836,2.029,1.246c0.676,0.414,1.355,0.824,2.035,1.23c0.01,0.008,0.021,0.014,0.031,0.02  c0.01,0.008,0.023,0.014,0.033,0.02c0.016,0.008,0.025,0.02,0.041,0.023c0.012,0.01,0.027,0.016,0.039,0.023  c21.43,12.809,44.406,22.59,68.299,29.166c23.896,6.582,48.711,9.961,73.828,9.961c6.166,0,12.301-0.205,18.412-0.605  c6.107-0.41,12.191-1.016,18.238-1.822c0.004,0,0.008,0,0.01,0c0,0,0.002,0,0.006,0c0.5-0.062,0.992-0.131,1.496-0.203  c0.496-0.07,0.994-0.137,1.494-0.207c0.008-0.004,0.018-0.004,0.025-0.004c0.008-0.004,0.02-0.004,0.027-0.004  c0.488-0.074,0.988-0.148,1.477-0.221c0.49-0.072,0.984-0.15,1.473-0.225c0.018,0,0.031-0.004,0.043-0.004  c0.012-0.006,0.027-0.006,0.041-0.012c0.486-0.072,0.977-0.156,1.465-0.234c0.486-0.072,0.977-0.15,1.459-0.238  c0.016-0.004,0.035-0.004,0.051-0.004c0.014-0.006,0.033-0.012,0.047-0.012c0.484-0.082,0.973-0.164,1.457-0.248  c0.482-0.084,0.971-0.166,1.449-0.254c0.02-0.006,0.039-0.01,0.057-0.01c0.018-0.004,0.033-0.01,0.051-0.01  c0.482-0.088,0.967-0.176,1.451-0.264c0.48-0.088,0.961-0.18,1.441-0.27c0.018-0.004,0.037-0.008,0.057-0.008  c0.018-0.006,0.039-0.012,0.057-0.012c0.48-0.092,0.959-0.184,1.441-0.281c0.48-0.094,0.963-0.188,1.441-0.285  c0.02-0.004,0.037-0.008,0.055-0.008c0.02-0.006,0.041-0.012,0.059-0.016c0.477-0.094,0.959-0.191,1.439-0.293  c0.479-0.098,0.959-0.199,1.436-0.303c0.021-0.006,0.039-0.006,0.055-0.01c0.02-0.004,0.039-0.01,0.053-0.01  c0.479-0.104,0.963-0.209,1.439-0.312c0.48-0.107,0.963-0.209,1.441-0.318c0.016-0.004,0.029-0.008,0.049-0.008  c0.014-0.006,0.031-0.012,0.047-0.016c0.48-0.107,0.963-0.215,1.443-0.328c0.477-0.105,0.961-0.223,1.441-0.336  c0.012-0.004,0.027-0.01,0.039-0.01c0.018-0.006,0.031-0.006,0.043-0.01c0.482-0.113,0.965-0.23,1.449-0.348  c0.48-0.117,0.965-0.234,1.445-0.355c0.01-0.004,0.02-0.004,0.029-0.01c0.01,0,0.02-0.006,0.029-0.006  c0.484-0.121,0.973-0.242,1.457-0.359c0.486-0.129,0.969-0.254,1.455-0.377c0.002,0,0.008,0,0.014-0.006  c0.004,0,0.008,0,0.014-0.004c4.428-1.152,8.834-2.412,13.213-3.785c4.377-1.371,8.73-2.859,13.051-4.453l22.547,26.359  l22.545,26.355l-13.021-89.18l-13.021-89.174c18.834-16.66,33.635-36.914,43.729-59.287c10.098-22.375,15.48-46.867,15.48-72.002  c0-4.277-0.158-8.594-0.484-12.924c-0.32-4.328-0.807-8.668-1.449-12.994l69.414-59.08L713.474,298.484z M402.501,187.477  c45.844,0,90.691,12.473,129.707,36.068c36.023,21.791,66.084,52.357,87.275,88.662l-88.096,12.865  c-15.979-17.695-34.996-31.723-56.566-41.713c-23.111-10.703-47.84-16.129-73.502-16.129c-4.385,0-8.842,0.18-13.559,0.553  l-51.682-71.379C357.706,190.484,380.019,187.477,402.501,187.477z M159.731,374.102c5.385-20.305,13.348-39.904,23.666-58.258  c1.26-2.242,2.555-4.461,3.881-6.66c0.082-0.137,0.162-0.266,0.246-0.398c0.572-0.945,1.15-1.887,1.734-2.824  c0.154-0.25,0.314-0.498,0.471-0.746c0.514-0.82,1.035-1.637,1.557-2.449c0.201-0.309,0.4-0.613,0.602-0.918  c0.486-0.75,0.979-1.5,1.477-2.242c0.227-0.344,0.461-0.684,0.689-1.025c0.473-0.705,0.951-1.41,1.434-2.107  c0.252-0.363,0.502-0.725,0.756-1.088c0.471-0.674,0.941-1.348,1.418-2.016c0.266-0.373,0.535-0.748,0.803-1.121  c0.471-0.652,0.939-1.303,1.416-1.947c0.279-0.383,0.564-0.766,0.844-1.146c0.471-0.631,0.945-1.262,1.422-1.893  c0.291-0.387,0.586-0.771,0.881-1.156c0.475-0.617,0.953-1.232,1.43-1.846c0.303-0.387,0.607-0.775,0.912-1.158  c0.479-0.607,0.963-1.209,1.447-1.812c0.311-0.383,0.621-0.77,0.934-1.152c0.49-0.6,0.984-1.195,1.48-1.791  c0.314-0.379,0.627-0.758,0.945-1.135c0.498-0.596,1.004-1.188,1.51-1.775c0.316-0.369,0.635-0.74,0.955-1.111  c0.518-0.594,1.039-1.186,1.562-1.777c0.312-0.357,0.625-0.711,0.941-1.066c0.543-0.607,1.09-1.207,1.637-1.811  c0.303-0.332,0.604-0.67,0.908-1c0.582-0.633,1.172-1.258,1.762-1.885c0.273-0.293,0.549-0.59,0.826-0.885  c0.68-0.717,1.369-1.432,2.057-2.141c0.191-0.195,0.375-0.393,0.568-0.59c0.891-0.908,1.787-1.812,2.689-2.707  c0.051-0.049,0.098-0.096,0.148-0.143c0.846-0.838,1.695-1.672,2.553-2.494c0.305-0.293,0.613-0.584,0.92-0.877  c0.605-0.574,1.207-1.148,1.816-1.719c0.375-0.355,0.762-0.701,1.141-1.055c0.545-0.5,1.09-1.006,1.637-1.506  c0.412-0.375,0.83-0.746,1.246-1.117c0.521-0.469,1.041-0.938,1.566-1.398c0.438-0.385,0.879-0.764,1.316-1.145  c0.508-0.441,1.021-0.889,1.535-1.326c0.457-0.391,0.912-0.775,1.371-1.158c0.506-0.426,1.008-0.848,1.516-1.271  c0.471-0.389,0.945-0.777,1.418-1.164c0.5-0.41,1-0.818,1.504-1.223c0.486-0.391,0.973-0.777,1.461-1.162  c0.496-0.395,0.994-0.787,1.496-1.182c0.498-0.387,1-0.773,1.498-1.156s0.994-0.762,1.498-1.143c0.508-0.385,1.018-0.768,1.529-1.15  c0.498-0.369,0.992-0.736,1.496-1.102c0.521-0.379,1.039-0.762,1.564-1.141c0.496-0.359,0.992-0.713,1.496-1.066  c0.529-0.379,1.061-0.756,1.598-1.129c0.494-0.344,0.992-0.689,1.494-1.035c0.543-0.371,1.084-0.744,1.627-1.111  c0.143-0.096,0.283-0.189,0.426-0.285l17.43,85.939c-16.523,15.867-29.596,34.477-38.875,55.354  c-9.965,22.424-15.018,46.33-15.018,71.053c0,5.582,0.285,11.324,0.855,17.107l-63.85,54.529  c-2.738-8.664-4.998-17.445-6.773-26.312c-0.01-0.047-0.018-0.088-0.027-0.139c-0.158-0.789-0.312-1.582-0.465-2.373  c-0.014-0.07-0.025-0.141-0.039-0.211c-0.148-0.775-0.289-1.555-0.43-2.338c-0.012-0.064-0.027-0.135-0.037-0.201  c-0.143-0.795-0.279-1.59-0.414-2.383c-0.008-0.047-0.016-0.092-0.023-0.141c-2.291-13.668-3.443-27.523-3.443-41.475  C151.366,416.742,154.183,395.037,159.731,374.102z M457.95,683.582c-0.062,0.014-0.133,0.027-0.195,0.043  c-0.762,0.172-1.523,0.336-2.285,0.504c-0.166,0.039-0.332,0.072-0.498,0.105c-0.658,0.143-1.318,0.279-1.979,0.416  c-0.234,0.045-0.469,0.092-0.703,0.143c-0.59,0.117-1.18,0.234-1.771,0.352c-0.283,0.053-0.572,0.105-0.854,0.16  c-0.543,0.102-1.08,0.205-1.621,0.303c-0.324,0.059-0.652,0.123-0.977,0.176c-0.494,0.092-0.992,0.176-1.48,0.264  c-0.367,0.062-0.732,0.127-1.104,0.191c-0.441,0.066-0.889,0.145-1.328,0.219c-0.416,0.068-0.826,0.137-1.24,0.199  c-0.387,0.055-0.771,0.123-1.152,0.176c-0.469,0.074-0.941,0.148-1.408,0.215c-0.281,0.045-0.564,0.078-0.842,0.123  c-4.582,0.658-9.186,1.197-13.805,1.602c-0.039,0.006-0.074,0.01-0.107,0.01c-0.779,0.068-1.553,0.133-2.332,0.191  c-0.041,0.004-0.09,0.008-0.139,0.008c-0.777,0.064-1.553,0.117-2.336,0.172c-0.039,0.004-0.07,0.01-0.113,0.01  c-0.793,0.049-1.592,0.104-2.387,0.15c-0.01,0-0.023,0-0.035,0c-4.898,0.289-9.82,0.43-14.758,0.43  c-45.84,0-90.695-12.469-129.715-36.059c-2.086-1.266-4.152-2.559-6.199-3.877c-0.176-0.111-0.354-0.225-0.525-0.342  c-0.809-0.523-1.611-1.055-2.416-1.586c-0.32-0.221-0.639-0.43-0.959-0.641c-0.736-0.492-1.467-0.996-2.199-1.504  c-0.377-0.254-0.758-0.518-1.133-0.777c-0.693-0.482-1.383-0.971-2.07-1.459c-0.408-0.287-0.82-0.576-1.227-0.873  c-0.664-0.475-1.318-0.957-1.977-1.441c-0.428-0.316-0.855-0.625-1.279-0.941c-0.641-0.475-1.275-0.957-1.91-1.438  c-0.436-0.332-0.873-0.664-1.305-0.996c-0.623-0.477-1.238-0.957-1.855-1.439c-0.443-0.346-0.883-0.693-1.32-1.045  c-0.605-0.479-1.205-0.961-1.805-1.445c-0.445-0.361-0.887-0.723-1.33-1.084c-0.59-0.482-1.178-0.971-1.758-1.459  c-0.447-0.377-0.891-0.748-1.334-1.125c-0.572-0.492-1.148-0.98-1.721-1.473c-0.445-0.387-0.889-0.773-1.33-1.158  c-0.562-0.494-1.121-0.986-1.68-1.484c-0.445-0.396-0.885-0.791-1.328-1.197c-0.549-0.492-1.098-0.996-1.643-1.492  c-0.443-0.41-0.883-0.82-1.318-1.227c-0.541-0.504-1.076-1.012-1.611-1.514c-0.443-0.42-0.879-0.846-1.314-1.264  c-0.525-0.508-1.051-1.016-1.57-1.523c-0.439-0.43-0.877-0.871-1.311-1.301c-0.51-0.512-1.021-1.02-1.529-1.531  c-0.441-0.445-0.873-0.891-1.305-1.344c-0.498-0.504-0.998-1.02-1.492-1.533c-0.443-0.463-0.877-0.924-1.309-1.393  c-0.48-0.508-0.969-1.016-1.443-1.531c-0.445-0.484-0.887-0.977-1.33-1.457c-0.461-0.502-0.918-1.004-1.375-1.512  c-0.488-0.543-0.971-1.094-1.455-1.641c-0.621-0.709-1.244-1.418-1.857-2.135c-0.645-0.742-1.287-1.484-1.916-2.24  c-0.363-0.43-0.719-0.865-1.078-1.295c-0.5-0.605-1.002-1.205-1.5-1.811c-0.373-0.461-0.74-0.924-1.105-1.383  c-0.473-0.586-0.947-1.176-1.414-1.768c-0.373-0.475-0.74-0.947-1.109-1.426c-0.455-0.586-0.912-1.172-1.363-1.758  c-0.365-0.482-0.729-0.971-1.094-1.455c-0.447-0.59-0.893-1.182-1.332-1.777c-0.359-0.488-0.713-0.977-1.07-1.469  c-0.436-0.602-0.873-1.203-1.305-1.809c-0.352-0.488-0.697-0.984-1.045-1.479c-0.428-0.611-0.854-1.217-1.277-1.83  c-0.342-0.494-0.68-0.996-1.02-1.496c-0.42-0.619-0.838-1.234-1.25-1.855c-0.332-0.496-0.666-1.004-0.992-1.508  c-0.414-0.625-0.824-1.254-1.225-1.885c-0.326-0.502-0.646-1.006-0.967-1.514c-0.404-0.635-0.803-1.273-1.201-1.914  c-0.312-0.508-0.625-1.016-0.936-1.523c-0.395-0.645-0.787-1.293-1.178-1.949c-0.301-0.508-0.607-1.01-0.906-1.523  c-0.158-0.273-0.316-0.541-0.473-0.814l80.023-11.686c15.826,19.361,35.904,35.377,58.219,46.426  c24.242,12.004,50.348,18.082,77.582,18.082c8.479,0,17.084-0.635,25.613-1.891l52.732,61.66  C472.505,679.938,465.259,681.926,457.95,683.582z M482.231,469.43l31.836,218.066L370.569,519.719l30.207-50.195l50.1,90.035  l-31.652-98.359l56.57,14.949l-49.723-33.773l86.809-48.668l-95.324,30.643l12.838-60.377l-30.889,53.742l-52.734-85.098  l35.078,92.65l-62.418-12.951l54.775,31.168l-87.088,50.078l94.729-31.617l-11.33,57.711l-1.195-1.398l-217.982,31.828  l162.779-138.99l4.408-3.775l-56.33-277.5l167.895,229.973l218.391-31.883L482.231,469.43z" /></svg>
